{
  "accessors": [
    {
      "bufferView": 2,
      "componentType": 5126,
      "count": 65532,
      "max": [
        -0.22607800364494324,
        8.142991065979004,
        7.904727935791016
      ],
      "min": [
        -5.7907819747924805,
        -6.607386112213135,
        0.05425100028514862
      ],
      "type": "VEC3"
    },
    {
      "bufferView": 2,
      "byteOffset": 786384,
      "componentType": 5126,
      "count": 65532,
      "max": [
        0.9999823570251465,
        0.9999549388885498,
        0.9999865293502808
      ],
      "min": [
        -0.9999997615814209,
        -0.9999711513519287,
        -1.0
      ],
      "type": "VEC3"
    },
    {
      "bufferView": 1,
      "componentType": 5126,
      "count": 65532,
      "max": [
        1.0,
        1.0
      ],
      "min": [
        0.0,
        0.0
      ],
      "type": "VEC2"
    },
    {
      "bufferView": 0,
      "componentType": 5125,
      "count": 343953,
      "type": "SCALAR"
    },
    {
      "bufferView": 2,
      "byteOffset": 1572768,
      "componentType": 5126,
      "count": 9721,
      "max": [
        -0.23572899401187897,
        8.222135543823242,
        7.866184234619141
      ],
      "min": [
        -5.7907819747924805,
        -6.603754997253418,
        0.07326400279998779
      ],
      "type": "VEC3"
    },
    {
      "bufferView": 2,
      "byteOffset": 1689420,
      "componentType": 5126,
      "count": 9721,
      "max": [
        0.9996065497398376,
        0.9999122619628906,
        0.9997095465660095
      ],
      "min": [
        -0.9999425411224365,
        -0.9982838034629822,
        -0.9999922513961792
      ],
      "type": "VEC3"
    },
    {
      "bufferView": 1,
      "byteOffset": 524256,
      "componentType": 5126,
      "count": 9721,
      "max": [
        0.9994000196456909,
        0.980400025844574
      ],
      "min": [
        0.0,
        0.0
      ],
      "type": "VEC2"
    },
    {
      "bufferView": 0,
      "byteOffset": 1375812,
      "componentType": 5125,
      "count": 36933,
      "type": "SCALAR"
    },
    {
      "bufferView": 2,
      "byteOffset": 1806072,
      "componentType": 5126,
      "count": 65532,
      "max": [
        6.569983005523682,
        8.049031257629395,
        7.8897929191589355
      ],
      "min": [
        1.0387569665908813,
        -6.608981132507324,
        0.016315000131726265
      ],
      "type": "VEC3"
    },
    {
      "bufferView": 2,
      "byteOffset": 2592456,
      "componentType": 5126,
      "count": 65532,
      "max": [
        0.9999595880508423,
        0.9999979734420776,
        0.9999979734420776
      ],
      "min": [
        -0.9999909400939941,
        -0.9998608231544495,
        -0.9999620914459229
      ],
      "type": "VEC3"
    },
    {
      "bufferView": 1,
      "byteOffset": 602024,
      "componentType": 5126,
      "count": 65532,
      "max": [
        1.0,
        1.0
      ],
      "min": [
        0.0,
        0.0
      ],
      "type": "VEC2"
    },
    {
      "bufferView": 0,
      "byteOffset": 1523544,
      "componentType": 5125,
      "count": 343953,
      "type": "SCALAR"
    },
    {
      "bufferView": 2,
      "byteOffset": 3378840,
      "componentType": 5126,
      "count": 9721,
      "max": [
        6.569983005523682,
        8.13513469696045,
        7.836156845092773
      ],
      "min": [
        1.048511028289795,
        -6.607491970062256,
        0.016642000526189804
      ],
      "type": "VEC3"
    },
    {
      "bufferView": 2,
      "byteOffset": 3495492,
      "componentType": 5126,
      "count": 9721,
      "max": [
        0.9996750950813293,
        0.9990682005882263,
        0.9999979734420776
      ],
      "min": [
        -0.9999817609786987,
        -0.9993175268173218,
        -0.999603807926178
      ],
      "type": "VEC3"
    },
    {
      "bufferView": 1,
      "byteOffset": 1126280,
      "componentType": 5126,
      "count": 9721,
      "max": [
        0.9994000196456909,
        0.980400025844574
      ],
      "min": [
        0.0,
        0.0
      ],
      "type": "VEC2"
    },
    {
      "bufferView": 0,
      "byteOffset": 2899356,
      "componentType": 5125,
      "count": 36933,
      "type": "SCALAR"
    }
  ],
  "asset": {
    "extras": {
      "author": "FletchTech (https://sketchfab.com/FletchTech)",
      "license": "CC-BY-4.0 (http://creativecommons.org/licenses/by/4.0/)",
      "source": "https://sketchfab.com/3d-models/nike-react-presto-running-shoes-c9b878b60d524413becd63dae298b027",
      "title": "NIKE REACT PRESTO RUNNING SHOES"
    },
    "generator": "Sketchfab-12.65.0",
    "version": "2.0"
  },
  "bufferViews": [
    {
      "buffer": 0,
      "byteLength": 3047088,
      "name": "floatBufferViews",
      "target": 34963
    },
    {
      "buffer": 0,
      "byteLength": 1204048,
      "byteOffset": 3047088,
      "byteStride": 8,
      "name": "floatBufferViews",
      "target": 34962
    },
    {
      "buffer": 0,
      "byteLength": 3612144,
      "byteOffset": 4251136,
      "byteStride": 12,
      "name": "floatBufferViews",
      "target": 34962
    }
  ],
  "buffers": [
    {
      "byteLength": 7863280,
      "uri": "scene.bin"
    }
  ],
  "images": [
    {
      "uri": "textures/Material.001_baseColor.png"
    },
    {
      "uri": "textures/Material.001_emissive.png"
    }
  ],
  "materials": [
    {
      "doubleSided": true,
      "emissiveFactor": [
        0.2,
        0.2,
        0.2
      ],
      "emissiveTexture": {
        "index": 1
      },
      "name": "Material.001",
      "pbrMetallicRoughness": {
        "baseColorTexture": {
          "index": 0
        }
      }
    }
  ],
  "meshes": [
    {
      "name": "Object_0",
      "primitives": [
        {
          "attributes": {
            "NORMAL": 1,
            "POSITION": 0,
            "TEXCOORD_0": 2
          },
          "indices": 3,
          "material": 0,
          "mode": 4
        }
      ]
    },
    {
      "name": "Object_1",
      "primitives": [
        {
          "attributes": {
            "NORMAL": 5,
            "POSITION": 4,
            "TEXCOORD_0": 6
          },
          "indices": 7,
          "material": 0,
          "mode": 4
        }
      ]
    },
    {
      "name": "Object_2",
      "primitives": [
        {
          "attributes": {
            "NORMAL": 9,
            "POSITION": 8,
            "TEXCOORD_0": 10
          },
          "indices": 11,
          "material": 0,
          "mode": 4
        }
      ]
    },
    {
      "name": "Object_3",
      "primitives": [
        {
          "attributes": {
            "NORMAL": 13,
            "POSITION": 12,
            "TEXCOORD_0": 14
          },
          "indices": 15,
          "material": 0,
          "mode": 4
        }
      ]
    }
  ],
  "nodes": [
    {
      "children": [
        1
      ],
      "matrix": [
        1.0,
        0.0,
        0.0,
        0.0,
        0.0,
        2.220446049250313e-16,
        -1.0,
        0.0,
        0.0,
        1.0,
        2.220446049250313e-16,
        0.0,
        0.0,
        0.0,
        0.0,
        1.0
      ],
      "name": "Sketchfab_model"
    },
    {
      "children": [
        2,
        3,
        4,
        5
      ],
      "name": "DopeNikes.obj.cleaner.materialmerger.gles"
    },
    {
      "mesh": 0,
      "name": "Object_2"
    },
    {
      "mesh": 1,
      "name": "Object_3"
    },
    {
      "mesh": 2,
      "name": "Object_4"
    },
    {
      "mesh": 3,
      "name": "Object_5"
    }
  ],
  "samplers": [
    {
      "magFilter": 9729,
      "minFilter": 9987,
      "wrapS": 10497,
      "wrapT": 10497
    }
  ],
  "scene": 0,
  "scenes": [
    {
      "name": "Sketchfab_Scene",
      "nodes": [
        0
      ]
    }
  ],
  "textures": [
    {
      "sampler": 0,
      "source": 0
    },
    {
      "sampler": 0,
      "source": 1
    }
  ]
}
